HIERARCHY
ROOT root
{
	OFFSET	0	13.1	24.9
	CHANNELS 6  Xposition Yposition Zposition Xrotation Yrotation Zrotation
	JOINT spine_1
	{
		OFFSET	0	9.99999	0
		CHANNELS 3  Xrotation Yrotation Zrotation
		JOINT spine_2
		{
			OFFSET	0	112	-10
			CHANNELS 3  Xrotation Yrotation Zrotation
			JOINT spine_3
			{
				OFFSET	0	206.5	19.3
				CHANNELS 3  Xrotation Yrotation Zrotation
				JOINT spine_4
				{
					OFFSET	0	110.4	14.6
					CHANNELS 3  Xrotation Yrotation Zrotation
					JOINT neck_1
					{
						OFFSET	0	71.8	-50.3
						CHANNELS 3  Xrotation Yrotation Zrotation
						JOINT neck_2
						{
							OFFSET	0	86.2	-25.8
							CHANNELS 3  Xrotation Yrotation Zrotation
							JOINT head_ee
							{
								OFFSET	0	179.8	-8.7
								CHANNELS 3  Xrotation Yrotation Zrotation
								End Site
								{
									OFFSET	1	0	0
								}
							}
						}
					}
					JOINT left_clavicle
					{
						OFFSET	-43.2	22.4	-70.8
						CHANNELS 3  Xrotation Yrotation Zrotation
						JOINT left_shoulder
						{
							OFFSET	-93.9	-5.79999	48.7
							CHANNELS 3  Xrotation Yrotation Zrotation
							JOINT left_elbow
							{
								OFFSET	-291.4	-30.8	15.2
								CHANNELS 3  Xrotation Yrotation Zrotation
								JOINT left_lowarm_twist
								{
									OFFSET	-110.7	-3.89999	13.6
									CHANNELS 3  Xrotation Yrotation Zrotation
									JOINT left_hand
									{
										OFFSET	-110.7	-3.89999	13.6
										CHANNELS 3  Xrotation Yrotation Zrotation
										JOINT left_ee
										{
											OFFSET	-80.8	-5.10001	12.1
											CHANNELS 3  Xrotation Yrotation Zrotation
											End Site
											{
												OFFSET	1	0	0
											}
										}
									}
								}
							}
						}
					}
					JOINT right_clavicle
					{
						OFFSET	43.2	22.4	-70.8
						CHANNELS 3  Xrotation Yrotation Zrotation
						JOINT right_shoulder
						{
							OFFSET	93.9	-5.79999	48.7
							CHANNELS 3  Xrotation Yrotation Zrotation
							JOINT right_elbow
							{
								OFFSET	291.4	-30.8	15.2
								CHANNELS 3  Xrotation Yrotation Zrotation
								JOINT right_lowarm_twist
								{
									OFFSET	110.7	-3.89999	13.6
									CHANNELS 3  Xrotation Yrotation Zrotation
									JOINT right_hand
									{
										OFFSET	110.7	-3.89999	13.6
										CHANNELS 3  Xrotation Yrotation Zrotation
										JOINT right_ee
										{
											OFFSET	80.8	-5.10001	12.1
											CHANNELS 3  Xrotation Yrotation Zrotation
											End Site
											{
												OFFSET	1	0	0
											}
										}
									}
								}
							}
						}
					}
				}
			}
		}
	}
	JOINT left_hip
	{
		OFFSET	-82.8	-127.5	0.300001
		CHANNELS 3  Xrotation Yrotation Zrotation
		JOINT left_knee
		{
			OFFSET	-28.2	-396.7	2.2
			CHANNELS 3  Xrotation Yrotation Zrotation
			JOINT left_ankle
			{
				OFFSET	-11.7	-411.3	35.4
				CHANNELS 3  Xrotation Yrotation Zrotation
				JOINT left_toes
				{
					OFFSET	0	-60	-88.6
					CHANNELS 3  Xrotation Yrotation Zrotation
					JOINT left_foot_ee
					{
						OFFSET	-22.5	-16.5	-42.2
						CHANNELS 3  Xrotation Yrotation Zrotation
						End Site
						{
							OFFSET	1	0	0
						}
					}
				}
			}
		}
	}
	JOINT right_hip
	{
		OFFSET	82.8	-127.5	0.300001
		CHANNELS 3  Xrotation Yrotation Zrotation
		JOINT right_knee
		{
			OFFSET	28.2	-396.7	2.2
			CHANNELS 3  Xrotation Yrotation Zrotation
			JOINT right_ankle
			{
				OFFSET	11.7	-411.3	35.4
				CHANNELS 3  Xrotation Yrotation Zrotation
				JOINT right_toes
				{
					OFFSET	0	-60	-88.6
					CHANNELS 3  Xrotation Yrotation Zrotation
					JOINT right_foot_ee
					{
						OFFSET	22.5	-16.5	-42.2
						CHANNELS 3  Xrotation Yrotation Zrotation
						End Site
						{
							OFFSET	1	0	0
						}
					}
				}
			}
		}
	}
}
MOTION
Frames: 13
Frame Time: 0.02
485.03114999 725.544 -1200.78719943 160.283915979 -69.6709898389 170.50594851 -2.82952 -0.144956 -1.67104 -2.82797 -0.0383445 -1.67688 -2.82502 0.395868 -1.62994 -2.8287 0.133518 -1.67199 -7.29541 9.11316 6.93461 -7.18055 11.9839 8.77551 -0.0 0.0 -0.0 6.07463 -7.5069 11.5514 -13.4831 -32.0342 60.0387 0.728855 -19.8523 0.12755 11.6921 0.262983 -1.46783 1.31224 -10.0154 4.60683 -0.0 0.0 -0.0 10.7273 -1.83067 -21.0442 -22.4198 19.8047 -52.5062 1.05702 27.6365 -0.259992 37.6939 0.234779 4.72369 3.80791 27.7122 -12.7018 0.0 0.0 0.0 10.2279 46.4275 -24.042 -13.9385 0.318592 2.11005 -3.85573 -27.4567 0.703465 39.7389 -0.0 -0.0 -0.0 0.0 -0.0 5.20124 -0.944535 -6.83404 -18.405 -0.31121 -2.79514 -8.4027 -28.968 -1.33273 38.5016 -0.0 -0.0 0.0 0.0 0.0 
487.922389069 723.762 -1195.72351456 163.49082808 -66.6433637018 173.602342446 -2.82445 -0.0592505 -1.71557 -2.82282 0.0500194 -1.71586 -2.82254 0.49127 -1.64481 -2.82624 0.225377 -1.70174 -6.92557 9.44918 7.63059 -6.78001 12.0343 9.50563 -0.0 0.0 -0.0 5.94279 -8.12357 11.2509 -11.9353 -32.2816 60.0817 0.705759 -19.2703 0.119817 12.2411 0.267919 -1.53778 1.28491 -9.82417 4.50421 -0.0 0.0 -0.0 10.7562 -0.902417 -21.1689 -22.7176 20.0869 -52.7005 1.0484 27.4443 -0.256009 37.1973 0.211569 4.6646 3.84342 27.5567 -13.0201 0.0 0.0 0.0 9.76887 45.7526 -23.4161 -14.4034 0.320314 2.18136 -3.73397 -27.6487 0.68272 39.7491 -0.0 -0.0 -0.0 0.0 -0.0 6.9987 -0.615174 -6.97967 -17.1781 -0.318559 -2.60703 -7.51337 -27.8222 -1.18164 39.2694 -0.0 -0.0 0.0 0.0 0.0 
491.219360639 723.964 -1195.95153311 166.490609915 -63.4906084802 176.296581614 -2.70078 -0.171563 -1.73011 -2.69912 -0.0611408 -1.73752 -2.69532 0.385662 -1.6953 -2.69932 0.113124 -1.73491 -6.72053 10.56 6.9519 -6.59967 14.559 9.03348 -0.0 0.0 -0.0 5.82708 -8.26391 11.0039 -11.5761 -34.4438 59.5308 0.704965 -19.2502 0.119555 11.709 0.263145 -1.46998 1.38005 -8.66067 5.64911 -0.0 0.0 -0.0 10.6997 1.58393 -21.1947 -22.9744 20.0378 -52.5658 0.890999 23.8152 -0.18789 37.419 0.221869 4.69101 4.01598 28.4644 -13.6227 0.0 0.0 0.0 11.5049 48.3846 -24.1602 -15.4078 0.32206 2.33545 -1.21959 -27.2671 0.220485 40.1243 -0.0 -0.0 -0.0 0.0 -0.0 7.52474 0.198019 -6.38313 -9.77115 -0.277343 -1.4721 -9.4178 -26.6402 -1.47482 38.7694 -0.0 -0.0 0.0 0.0 0.0 
496.715136946 723.729 -1196.20559229 167.771439755 -60.7468497719 177.114020128 -2.92063 -0.0917926 -1.77269 -2.91888 0.0211764 -1.77494 -2.91755 0.481488 -1.70854 -2.92156 0.205657 -1.76312 -6.94391 9.6888 6.62689 -6.83727 13.215 8.55838 -0.0 0.0 -0.0 6.68295 -9.05903 12.7574 -10.8778 -32.5069 58.1618 0.720181 -19.6342 0.12462 12.2581 0.268061 -1.53994 1.21987 -8.72152 4.53741 -0.0 0.0 -0.0 10.7387 2.29903 -21.3112 -23.0823 20.2078 -52.3963 0.834924 22.4697 -0.16585 37.2041 0.211882 4.6654 3.81658 28.4333 -12.3513 0.0 0.0 0.0 11.3481 50.5775 -23.6624 -15.4056 0.322059 2.33512 1.89597 -28.9069 -0.34687 40.1174 -0.0 -0.0 -0.0 0.0 -0.0 9.09233 -0.210512 -5.16053 -8.46679 -0.254909 -1.27321 -9.25692 -25.3111 -1.43888 38.0784 -0.0 -0.0 0.0 0.0 0.0 
505.636678926 721.286 -1197.86286729 171.955783969 -59.5423061665 -179.749124284 -2.9909 -0.167807 -1.77789 -2.98914 -0.0543541 -1.78496 -2.98529 0.413175 -1.73734 -2.98947 0.133654 -1.78078 -6.99061 9.9375 5.33809 -6.92569 14.622 7.33399 -0.0 0.0 -0.0 6.99116 -7.72699 13.4517 -7.57266 -33.2959 56.879 0.861023 -23.0993 0.175957 13.8343 0.278446 -1.74099 0.885466 -6.84756 3.07262 -0.0 0.0 -0.0 10.9703 1.32457 -21.7541 -23.6001 20.7551 -50.6279 0.692418 18.9322 -0.115451 37.2693 0.214904 4.67318 2.95912 26.657 -7.77892 0.0 0.0 0.0 15.6287 47.5954 -24.391 -22.3729 0.259908 3.4017 5.60793 -27.3779 -0.993206 39.3375 -0.0 -0.0 -0.0 0.0 -0.0 10.8493 1.61202 -4.93361 2.04046 0.0893875 0.300329 -10.8005 -16.7722 -1.628 32.1973 -0.0 -0.0 0.0 0.0 0.0 
507.681570339 719.445 -1197.19284061 171.457806908 -60.8061648742 179.818804378 -3.1647 -0.257869 -1.86465 -3.16278 -0.138715 -1.87727 -3.15563 0.361287 -1.84741 -3.16038 0.0650432 -1.88127 -5.85521 10.3536 5.98607 -5.75089 14.7176 7.94741 -0.0 0.0 -0.0 7.29297 -7.8951 14.0789 -5.47987 -31.8167 54.9486 1.11072 -28.8195 0.285395 14.2074 0.280094 -1.78862 0.748567 -6.17291 2.43323 -0.0 0.0 -0.0 11.0086 3.86292 -21.954 -24.4943 20.4623 -50.7529 0.647122 17.7741 -0.101188 38.8816 0.292372 4.86423 2.53979 24.629 -6.08651 0.0 0.0 0.0 13.382 45.0121 -22.4096 -22.4237 0.258979 3.40943 8.91771 -25.5061 -1.5246 38.7142 -0.0 -0.0 -0.0 0.0 -0.0 13.6508 2.19223 -5.00381 4.12819 0.191878 0.604194 -12.1012 -9.34894 -1.80888 28.9994 -0.0 -0.0 0.0 0.0 0.0 
507.743409377 719.445 -1198.26128225 171.315018859 -61.327236319 179.655653965 -3.1647 -0.257869 -1.86465 -3.16278 -0.138715 -1.87727 -3.15563 0.361287 -1.84741 -3.16038 0.0650432 -1.88127 -5.85521 10.3536 5.98607 -5.75089 14.7176 7.94741 -0.0 0.0 -0.0 7.29297 -7.8951 14.0789 -5.47987 -31.8167 54.9486 1.11072 -28.8195 0.285395 14.2074 0.280094 -1.78862 0.748567 -6.17291 2.43323 -0.0 0.0 -0.0 11.0086 3.86292 -21.954 -24.4943 20.4623 -50.7529 0.647122 17.7741 -0.101188 38.8816 0.292372 4.86423 2.53979 24.629 -6.08651 0.0 0.0 0.0 13.382 45.0121 -22.4096 -22.4237 0.258979 3.40943 8.91771 -25.5061 -1.5246 38.7142 -0.0 -0.0 -0.0 0.0 -0.0 13.6508 2.19223 -5.00381 4.12819 0.191878 0.604194 -12.1012 -9.34894 -1.80888 28.9994 -0.0 -0.0 0.0 0.0 0.0 
510.240666419 719.162 -1203.17574901 172.845177021 -63.4804797014 -179.016394239 -3.02088 -0.182679 -1.86945 -3.01894 -0.0633721 -1.87728 -3.01445 0.429494 -1.8286 -3.01909 0.135364 -1.87346 -7.38953 9.56474 6.3736 -7.2979 13.249 8.32149 -0.0 0.0 -0.0 7.5731 -6.31216 14.7032 -5.0386 -34.2729 52.6229 1.42266 -35.1721 0.450935 13.2983 0.275535 -1.6726 0.641047 -5.971 1.79276 -0.0 0.0 -0.0 11.0148 4.61712 -21.9939 -26.2157 19.6347 -50.9968 0.642911 17.6657 -0.0999063 39.5433 0.325723 4.94201 2.18604 23.2068 -4.46988 0.0 0.0 0.0 13.2976 40.5567 -21.0577 -24.7052 0.210195 3.75611 11.1371 -24.8786 -1.87284 37.2102 -0.0 -0.0 -0.0 0.0 -0.0 15.176 3.10476 -4.61722 6.16211 0.302338 0.896526 -13.278 -4.68097 -1.99213 28.3181 -0.0 -0.0 0.0 0.0 0.0 
522.247018215 711.925 -1195.24685945 174.223947614 -66.2154957793 -178.126740525 -2.83507 -0.37105 -1.82971 -2.83324 -0.253889 -1.84961 -2.82251 0.232063 -1.85247 -2.82729 -0.0633605 -1.86587 -8.29467 9.56596 7.39527 -8.17618 12.6933 9.40672 -0.0 0.0 -0.0 7.88746 -5.37796 15.3722 -1.87812 -34.9362 50.1466 1.88675 -43.0607 0.744423 12.569 0.270547 -1.57957 0.446391 -6.32306 0.330315 -0.0 0.0 -0.0 11.3324 5.36878 -22.7094 -28.3578 18.7551 -51.6819 0.60465 16.6745 -0.088611 41.4003 0.424092 5.15818 1.69798 21.3549 -2.13546 0.0 0.0 0.0 12.444 38.2554 -20.4333 -24.2756 0.220436 3.69098 14.6808 -26.6987 -2.47978 37.1294 -0.0 -0.0 -0.0 0.0 -0.0 19.4653 4.65737 -4.65633 5.3506 0.257019 0.780352 -18.5046 2.63454 -2.83568 25.685 -0.0 -0.0 0.0 0.0 0.0 
531.338200186 707.572 -1191.92847267 174.444313854 -68.9208058186 -178.24571485 -2.884 -0.466195 -1.80492 -2.88226 -0.350418 -1.83092 -2.86843 0.135419 -1.85921 -2.87322 -0.159857 -1.85727 -7.17319 9.47703 7.09934 -7.05167 12.5209 9.00321 -0.0 0.0 -0.0 8.04055 -5.53895 15.6897 -2.09964 -35.0811 48.5792 2.13144 -46.5504 0.916936 12.552 0.270417 -1.5774 0.445481 -7.04783 0.0166762 -0.0 0.0 -0.0 11.2968 4.63383 -22.607 -29.0066 18.454 -51.9816 0.568219 15.721 -0.078448 41.806 0.446517 5.20498 1.58055 20.9664 -1.53985 0.0 0.0 0.0 12.6416 38.7929 -20.9988 -24.0921 0.224661 3.66314 15.603 -26.5599 -2.61917 36.2031 -0.0 -0.0 -0.0 0.0 -0.0 20.5645 5.02291 -4.78964 4.99524 0.237694 0.729282 -21.2842 4.001 -3.28098 23.8113 -0.0 -0.0 0.0 0.0 0.0 
544.710787884 707.612 -1190.53262371 174.647427642 -71.1708583368 -178.121683392 -2.85212 -0.55765 -1.76757 -2.8505 -0.444064 -1.79946 -2.83391 0.0356538 -1.85308 -2.83861 -0.257403 -1.83547 -8.18954 9.506 7.86692 -8.04845 12.226 9.84713 -0.0 0.0 -0.0 8.11694 -5.25788 15.8514 -0.598317 -35.3867 48.7253 2.231 -47.8537 0.989996 12.3777 0.269043 -1.55519 0.355466 -6.26802 -0.259814 -0.0 0.0 -0.0 11.3225 4.79952 -22.669 -30.433 17.7161 -52.3072 0.591893 16.3416 -0.0849861 42.2251 0.470032 5.25317 1.47303 20.3829 -1.09553 0.0 0.0 0.0 11.1882 36.1467 -20.1568 -23.9488 0.227897 3.6414 15.8692 -26.3371 -2.65333 36.336 -0.0 -0.0 -0.0 0.0 -0.0 21.9886 6.25865 -4.39481 4.72637 0.223284 0.690567 -21.4663 6.25398 -3.34129 23.731 -0.0 -0.0 0.0 0.0 0.0 
611.837075295 694.805 -1171.63762086 177.474529235 -71.9929183973 -176.402555532 -3.01074 -0.69964 -2.08469 -3.0085 -0.565599 -2.12496 -2.98369 0.00798084 -2.1989 -2.99027 -0.339311 -2.17259 -4.73385 9.35884 6.57887 -4.60366 12.2204 8.28116 -0.0 0.0 -0.0 10.3352 -7.14601 20.5714 1.5231 -35.7859 47.1378 2.59525 -52.114 1.26915 12.3285 0.268643 -1.54891 0.126997 -7.05205 -2.13529 -0.0 0.0 -0.0 10.676 2.70235 -21.1951 -33.018 17.4887 -52.604 0.462295 12.8989 -0.0522592 42.7273 0.498668 5.31068 1.27355 19.0433 -0.376788 0.0 0.0 0.0 6.4556 40.0512 -18.1305 -21.4401 0.275746 3.25942 16.9517 -27.8329 -2.8693 35.7951 -0.0 -0.0 -0.0 0.0 -0.0 24.4449 6.34393 -2.93859 6.23426 0.306447 0.906825 -22.6082 8.19193 -3.55326 21.6038 -0.0 -0.0 0.0 0.0 0.0 
634.572700914 688.616 -1168.56050791 176.142974088 -72.312129247 -177.991682272 -3.07792 -0.716427 -2.11453 -3.07562 -0.580454 -2.15581 -3.04977 0.00424804 -2.23254 -3.05656 -0.348307 -2.20522 -0.380572 8.9347 4.28743 -0.257554 12.4877 5.56429 -0.0 0.0 -0.0 10.8825 -7.25515 21.7661 1.17125 -35.5321 46.9496 2.61368 -52.3103 1.28372 12.2696 0.268157 -1.54141 -0.120346 -8.29678 -4.33905 -0.0 0.0 -0.0 10.1803 -2.542 -19.876 -35.7164 21.5358 -49.5039 0.460633 12.8541 -0.0518887 42.2124 0.46931 5.25171 1.25012 17.4233 -0.941985 0.0 0.0 0.0 5.59433 41.4459 -18.3983 -22.4192 0.259062 3.40875 16.3934 -27.8384 -2.78314 35.5891 -0.0 -0.0 -0.0 0.0 -0.0 24.2059 6.17801 -2.91943 3.88046 0.179137 0.568332 -20.9556 6.0281 -3.25815 20.7088 -0.0 -0.0 0.0 0.0 0.0 
